<svg width="15" height="15" viewBox="0 0 15 15" fill="none" xmlns="http://www.w3.org/2000/svg">
<path d="M2.0221 3.78755C2.41312 3.51425 3.00258 3.56666 3.35367 3.8566L2.95099 3.27131C2.62694 2.80915 2.743 2.30914 3.20558 1.98467C3.66815 1.66145 4.97892 2.53044 4.97892 2.53044C4.65196 2.0637 4.71311 1.47217 5.17984 1.14479C5.64658 0.81866 6.29052 0.931392 6.61749 1.39896L10.9521 7.52226L10.3996 12.8781L5.78926 11.1967L1.76793 5.23434C1.43805 4.7647 1.55203 4.11701 2.0221 3.78755Z" fill="#1E1E1F"/>
<path d="M1.1211 7.19406C1.1211 7.19406 0.650203 6.50768 1.337 6.0372C2.02296 5.56672 2.49343 6.25268 2.49343 6.25268L4.67777 9.4383C4.75307 9.31267 4.83543 9.18871 4.92736 9.06641L1.89566 4.64573C1.89566 4.64573 1.42518 3.95977 2.11156 3.48929C2.79752 3.01881 3.268 3.70477 3.268 3.70477L6.11958 7.86338C6.22566 7.77685 6.33423 7.68991 6.44613 7.60464L3.14029 2.78295C3.14029 2.78295 2.66981 2.09699 3.35619 1.62651C4.04215 1.15603 4.51263 1.84199 4.51263 1.84199L7.81846 6.66284C7.93993 6.58838 8.06015 6.52391 8.18079 6.45568L5.09085 1.94973C5.09085 1.94973 4.62037 1.26377 5.30633 0.793292C5.99229 0.322813 6.46277 1.00877 6.46277 1.00877L9.72991 5.77347L10.2266 6.49811C8.16831 7.90997 7.97238 10.566 9.14837 12.2811C9.3834 12.6243 9.72659 12.3893 9.72659 12.3893C8.31515 10.3306 8.74611 8.01729 10.8048 6.60585L10.1979 3.56833C10.1979 3.56833 9.97119 2.76797 10.7711 2.54085C11.5715 2.31413 11.7986 3.11449 11.7986 3.11449L12.4995 5.19608C12.7774 6.0214 13.0732 6.8438 13.4646 7.62169C14.5699 9.81809 13.9097 12.5478 11.8256 13.9775C9.55229 15.5362 6.44446 14.9568 4.88535 12.6838L1.1211 7.19406Z" fill="#59CEB4"/>
<path d="M4.99178 13.3115C3.32784 13.3115 1.64642 11.6301 1.64642 9.96619C1.64642 9.73615 1.47795 9.5502 1.24791 9.5502C1.01787 9.5502 0.814453 9.73615 0.814453 9.96619C0.814453 12.4621 2.49587 14.1435 4.99178 14.1435C5.22182 14.1435 5.40776 13.9401 5.40776 13.7101C5.40776 13.48 5.22182 13.3115 4.99178 13.3115Z" fill="#876FF5"/>
<path d="M4.99178 13.3115C3.32784 13.3115 1.64642 11.6301 1.64642 9.96619C1.64642 9.73615 1.47795 9.5502 1.24791 9.5502C1.01787 9.5502 0.814453 9.73615 0.814453 9.96619C0.814453 12.4621 2.49587 14.1435 4.99178 14.1435C5.22182 14.1435 5.40776 13.9401 5.40776 13.7101C5.40776 13.48 5.22182 13.3115 4.99178 13.3115Z" fill="black" fill-opacity="0.2"/>
<path d="M2.9119 14.126C1.66394 14.126 0.831971 13.2941 0.831971 12.0461C0.831971 11.8161 0.646025 11.6301 0.415985 11.6301C0.185945 11.6301 0 11.8161 0 12.0461C0 13.7101 1.24796 14.958 2.9119 14.958C3.14194 14.958 3.32788 14.7721 3.32788 14.542C3.32788 14.312 3.14194 14.126 2.9119 14.126ZM9.98365 0.814514C9.75402 0.814514 9.56766 1.00088 9.56766 1.2305C9.56766 1.46012 9.75402 1.64648 9.98365 1.64648C11.6476 1.64648 13.3115 3.13946 13.3115 4.97437C13.3115 5.20399 13.4979 5.39035 13.7275 5.39035C13.9571 5.39035 14.1435 5.20399 14.1435 4.97437C14.1435 2.68062 12.4796 0.814514 9.98365 0.814514Z" fill="#876FF5"/>
<path d="M2.9119 14.126C1.66394 14.126 0.831971 13.2941 0.831971 12.0461C0.831971 11.8161 0.646025 11.6301 0.415985 11.6301C0.185945 11.6301 0 11.8161 0 12.0461C0 13.7101 1.24796 14.958 2.9119 14.958C3.14194 14.958 3.32788 14.7721 3.32788 14.542C3.32788 14.312 3.14194 14.126 2.9119 14.126ZM9.98365 0.814514C9.75402 0.814514 9.56766 1.00088 9.56766 1.2305C9.56766 1.46012 9.75402 1.64648 9.98365 1.64648C11.6476 1.64648 13.3115 3.13946 13.3115 4.97437C13.3115 5.20399 13.4979 5.39035 13.7275 5.39035C13.9571 5.39035 14.1435 5.20399 14.1435 4.97437C14.1435 2.68062 12.4796 0.814514 9.98365 0.814514Z" fill="black" fill-opacity="0.2"/>
<path d="M12.0636 0C11.8339 0 11.6476 0.16889 11.6476 0.398514C11.6476 0.628138 11.8339 0.831971 12.0636 0.831971C13.3115 0.831971 14.126 1.75754 14.126 2.89443C14.126 3.12405 14.3294 3.31041 14.5595 3.31041C14.7895 3.31041 14.958 3.12405 14.958 2.89443C14.958 1.29829 13.7275 0 12.0636 0Z" fill="#876FF5"/>
<path d="M12.0636 0C11.8339 0 11.6476 0.16889 11.6476 0.398514C11.6476 0.628138 11.8339 0.831971 12.0636 0.831971C13.3115 0.831971 14.126 1.75754 14.126 2.89443C14.126 3.12405 14.3294 3.31041 14.5595 3.31041C14.7895 3.31041 14.958 3.12405 14.958 2.89443C14.958 1.29829 13.7275 0 12.0636 0Z" fill="black" fill-opacity="0.2"/>
</svg>
